#!OML:ASF F:\VICON\USERDATA\INSTALL\rory3\rory3.ASF
:FULLY-SPECIFIED
:DEGREES
354
root 4.71818 17.0594 2.50058 10.6201 -12.0073 -0.846603
lowerback 0.788322 0.41204 -0.327765
upperback -2.64602 0.529189 -0.390244
thorax -3.15708 0.265963 -0.235779
lowerneck -11.2483 0.437634 -0.602137
upperneck 43.3654 0.530297 0.167866
head 18.0688 0.0423838 0.252164
rclavicle -2.13445e-014 -5.76476e-015
rhumerus 19.5927 1.86191 -18.5084
rradius 105.953
rwrist -49.4371
rhand -9.03591 -48.4885
rfingers 7.12502
rthumb 16.9119 -77.7721
lclavicle -2.13445e-014 -5.76476e-015
lhumerus 36.1451 8.66517 14.3196
lradius 79.798
lwrist 87.4522
lhand -25.361 -22.1798
lfingers 7.12502
lthumb 1.16293 7.7968
rfemur -54.0463 -3.25604 13.0569
rtibia 33.8519
rfoot 34.9122 -6.27797
rtoes 5.38856
lfemur -27.3936 4.48508 -30.5282
ltibia 34.3435
lfoot -17.0686 7.09819
ltoes 16.2198
355
root 4.71652 17.0519 2.49973 10.5875 -11.6811 -0.811999
lowerback 0.662236 0.315961 -0.309714
upperback -2.52292 0.402258 -0.41014
thorax -2.95878 0.201903 -0.260448
lowerneck -11.1445 0.424258 -0.6621
upperneck 43.1916 0.527163 0.173843
head 17.9345 0.0338993 0.264729
rclavicle -1.59773e-014 -9.14409e-015
rhumerus 19.5789 2.2374 -18.554
rradius 105.693
rwrist -49.1664
rhand -9.64047 -48.4705
rfingers 7.12502
rthumb 16.3298 -77.803
lclavicle -1.59773e-014 -9.14409e-015
lhumerus 36.1782 8.265 14.4754
lradius 79.9805
lwrist 87.2559
lhand -25.3254 -21.1229
lfingers 7.12502
lthumb 1.19728 8.85345
rfemur -54.1749 -3.36442 13.3142
rtibia 33.9701
rfoot 34.7336 -6.27965
rtoes 5.56808
lfemur -27.465 4.69676 -30.5902
ltibia 34.5408
lfoot -17.1792 6.6973
ltoes 16.2223
356
root 4.71378 17.0387 2.49775 10.5226 -11.3659 -0.726175
lowerback 0.580951 0.275561 -0.292937
upperback -2.35091 0.348387 -0.488809
thorax -2.73518 0.173717 -0.347652
lowerneck -11.3268 0.371565 -0.771303
upperneck 43.2638 0.412186 0.342972
head 18.0272 -0.00709197 0.344849
rclavicle 2.20899e-014 7.55382e-015
rhumerus 19.4415 2.47386 -18.6419
rradius 105.45
rwrist -48.9488
rhand -9.95107 -48.6289
rfingers 7.12502
rthumb 16.0308 -77.9857
lclavicle 2.20899e-014 7.55382e-015
lhumerus 36.4063 7.94578 14.693
lradius 80.2166
lwrist 87.0688
lhand -25.1244 -20.0548
lfingers 7.12502
lthumb 1.39139 9.92044
rfemur -54.3308 -3.54419 13.5705
rtibia 34.1283
rfoot 34.6978 -5.58683
rtoes 4.31883
lfemur -27.5062 4.88348 -30.7039
ltibia 34.7352
lfoot -17.2528 6.37309
ltoes 15.4033
357
root 4.70783 17.0238 2.49227 10.3852 -11.2001 -0.414235
lowerback 0.589034 0.275727 -0.571386
upperback -2.15562 0.341412 -0.629903
thorax -2.53957 0.174464 -0.335397
lowerneck -11.6978 0.300527 -0.882414
upperneck 43.3955 0.24698 0.567731
head 18.2096 -0.0612626 0.443842
rclavicle 1.61513e-015 -5.56597e-015
rhumerus 19.2673 2.59141 -18.7219
rradius 105.29
rwrist -49.0009
rhand -9.58633 -48.712
rfingers 7.12502
rthumb 16.382 -78.0402
lclavicle 1.61513e-015 -5.56597e-015
lhumerus 36.6795 7.734 14.9035
lradius 80.2856
lwrist 87.185
lhand -24.6906 -19.244
lfingers 7.12502
lthumb 1.81038 10.7281
rfemur -54.5115 -3.54946 13.5202
rtibia 34.2625
rfoot 34.8149 -5.12505
rtoes 3.89631
lfemur -27.5794 5.00209 -31.0284
ltibia 34.9989
lfoot -17.4227 6.18863
ltoes 14.3446
